<svg xmlns="http://www.w3.org/2000/svg" xmlns:xlink="http://www.w3.org/1999/xlink" width="168.378" height="21.891" viewBox="0 0 168.378 21.891">
  <defs>
    <linearGradient id="linear-gradient" x1="0.5" y1="1" x2="0.5" gradientUnits="objectBoundingBox">
      <stop offset="0" stop-color="#cb65c7"/>
      <stop offset="0" stop-color="#fff"/>
      <stop offset="1" stop-color="#fff"/>
    </linearGradient>
  </defs>
  <path id="Gradient_Overlay" data-name="Gradient Overlay" d="M91.649,158.477a6.786,6.786,0,0,0-5.378,2.192v-2.017H82.793V174.26h3.653v-7.891c0-3.127,1.754-4.706,4.355-4.706,2.338,0,3.712,1.344,3.712,4.121v8.476h3.653v-8.944C98.166,160.611,95.39,158.477,91.649,158.477Zm25.983,8.067c0-4.881-3.332-8.067-7.891-8.067a7.762,7.762,0,0,0-8.067,7.979c0,4.647,3.39,8.008,8.622,8.008a7.911,7.911,0,0,0,6.284-2.543l-1.958-2.251a5.593,5.593,0,0,1-4.238,1.7c-2.718,0-4.618-1.461-5.056-3.741h12.246C117.6,167.275,117.632,166.836,117.632,166.544ZM109.74,161.4a4.249,4.249,0,0,1,4.413,3.8H105.3A4.313,4.313,0,0,1,109.74,161.4Zm19.758,9.411a3.285,3.285,0,0,1-2.046.643c-1.4,0-2.163-.818-2.163-2.338v-7.424h4.18V158.77h-4.18V155.2h-3.653v3.566h-2.572v2.923h2.572V169.2c0,3.449,1.958,5.261,5.378,5.261a5.741,5.741,0,0,0,3.507-1.052Zm12.685-12.334a6.488,6.488,0,0,0-5,2.075v-7.979h-3.653V174.26h3.478v-2.017a6.435,6.435,0,0,0,5.173,2.221,7.994,7.994,0,0,0,0-15.987Zm-.409,12.86a4.888,4.888,0,1,1,4.618-4.881A4.561,4.561,0,0,1,141.773,171.337Zm26.48-4.793c0-4.881-3.332-8.067-7.891-8.067a7.762,7.762,0,0,0-8.067,7.979c0,4.647,3.39,8.008,8.622,8.008a7.911,7.911,0,0,0,6.284-2.543l-1.958-2.251a5.593,5.593,0,0,1-4.238,1.7c-2.718,0-4.618-1.461-5.056-3.741h12.246C168.224,167.275,168.253,166.836,168.253,166.544Zm-7.891-5.144a4.249,4.249,0,0,1,4.413,3.8h-8.856A4.313,4.313,0,0,1,160.362,161.4Zm16.923-2.923a10.974,10.974,0,0,0-6.605,1.929l1.432,2.66a7.727,7.727,0,0,1,4.735-1.549c2.6,0,3.887,1.257,3.887,3.39v.234H176.7c-4.735,0-6.488,2.046-6.488,4.647,0,2.718,2.251,4.676,5.816,4.676,2.338,0,4.033-.76,4.91-2.1v1.9h3.449v-9.148C184.387,160.611,181.786,158.477,177.285,158.477Zm-.5,13.328c-1.871,0-2.981-.848-2.981-2.163,0-1.14.672-2.075,3.157-2.075h3.77v1.812A3.978,3.978,0,0,1,176.788,171.8Zm20.634-.994a3.285,3.285,0,0,1-2.046.643c-1.4,0-2.163-.818-2.163-2.338v-7.424h4.18V158.77h-4.18V155.2H189.56v3.566h-2.572v2.923h2.572V169.2c0,3.449,1.958,5.261,5.378,5.261a5.741,5.741,0,0,0,3.507-1.052Zm4.559,3.566a1.241,1.241,0,0,0,1.228-1.257,1.228,1.228,0,1,0-2.455,0A1.241,1.241,0,0,0,201.982,174.377ZM208,174.26h1.461V152.573H208Zm8.359-18.969a1.184,1.184,0,1,0,0-2.367,1.2,1.2,0,0,0-1.2,1.2A1.179,1.179,0,0,0,216.361,155.291Zm-.731,18.969h1.461V159h-1.461ZM234.015,159l-6.138,13.649L221.8,159h-1.549l6.868,15.257h1.491l6.9-15.257Zm17.156,7.57c0-4.53-3.1-7.687-7.278-7.687s-7.307,3.215-7.307,7.745a7.49,7.49,0,0,0,7.862,7.745,7.3,7.3,0,0,0,5.758-2.484l-.848-.964a6.528,6.528,0,0,1-11.34-3.946h13.123C251.142,166.836,251.171,166.69,251.171,166.573Zm-7.278-6.4a5.768,5.768,0,0,1,5.845,5.67H238.048A5.767,5.767,0,0,1,243.894,160.172Z" transform="translate(-82.793 -152.573)" fill="url(#linear-gradient)"/>
</svg>
