<?xml version="1.0" encoding="utf-8"?>
<!-- Generator: Adobe Illustrator 25.4.1, SVG Export Plug-In . SVG Version: 6.00 Build 0)  -->
<svg version="1.1" id="Capa_1" xmlns="http://www.w3.org/2000/svg" xmlns:xlink="http://www.w3.org/1999/xlink" x="0px" y="0px"
	 viewBox="0 0 512 512" style="enable-background:new 0 0 512 512;" xml:space="preserve">
<style type="text/css">
	.st0{fill:#19202B;}
</style>
<g>
	<g>
		<path class="st0" d="M480,96H32c-17.7,0-32,14.3-32,32v256c0,17.7,14.3,32,32,32h448c17.7,0,32-14.3,32-32V128
			C512,110.3,497.7,96,480,96z M490.7,384c0,5.9-4.8,10.7-10.7,10.7H32c-5.9,0-10.7-4.8-10.7-10.7V128c0-5.9,4.8-10.7,10.7-10.7h448
			c5.9,0,10.7,4.8,10.7,10.7V384z"/>
	</g>
</g>
<g>
	<g>
		<path class="st0" d="M412.8,96C324.4,9.4,182.6,10.9,96,99.2l15.3,14.9c0.9-1,1.9-1.9,2.9-2.9c79.9-78.3,208.2-77.1,286.6,2.9
			L416,99.2C414.9,98.1,413.9,97.1,412.8,96z"/>
	</g>
</g>
<g>
	<g>
		<path class="st0" d="M400.7,397.9c-0.9,1-1.9,1.9-2.9,2.9c-79.9,78.3-208.2,77.1-286.6-2.9L96,412.8c42,43.1,99.8,67.4,160,67.2
			c60.2,0.2,118-24,160-67.2L400.7,397.9z"/>
	</g>
</g>
<g>
	<g>
		<path class="st0" d="M188.9,195.1l-10.7-10.7c-2-2-4.7-3.1-7.5-3.1H96v21.3h70.3l4.4,4.4v33.8l-4.4,4.4h-48.9v21.3h53.3
			c2.8,0,5.5-1.1,7.5-3.1l10.7-10.7c2-2,3.1-4.7,3.1-7.5v-42.7C192,199.9,190.9,197.1,188.9,195.1z"/>
	</g>
</g>
<g>
	<g>
		<path class="st0" d="M188.9,259.1l-10.7-10.7c-2-2-4.7-3.1-7.5-3.1h-53.3v21.3h48.9l4.4,4.4v33.8l-4.4,4.4H96v21.3h74.7
			c2.8,0,5.5-1.1,7.5-3.1l10.7-10.7c2-2,3.1-4.7,3.1-7.5v-42.7C192,263.9,190.9,261.1,188.9,259.1z"/>
	</g>
</g>
<g>
	<g>
		<path class="st0" d="M306.2,259.1l-10.7-10.7c-2-2-4.7-3.1-7.5-3.1h-53.3v-38.3l4.4-4.4h59.6v-21.3h-64c-2.8,0-5.5,1.1-7.5,3.1
			l-10.7,10.7c-2,2-3.1,4.7-3.1,7.5v106.7c0,2.8,1.1,5.5,3.1,7.5l10.7,10.7c2,2,4.7,3.1,7.5,3.1H288c2.8,0,5.5-1.1,7.5-3.1
			l10.7-10.7c2-2,3.1-4.7,3.1-7.5v-42.7C309.3,263.9,308.2,261.1,306.2,259.1z M288,304.9l-4.4,4.4h-44.5l-4.4-4.4v-38.3h48.9
			l4.4,4.4V304.9z"/>
	</g>
</g>
<g>
	<g>
		<path class="st0" d="M405.3,181.3H352c-11.8,0-21.3,9.6-21.3,21.3v106.7c0,11.8,9.6,21.3,21.3,21.3h53.3
			c11.8,0,21.3-9.6,21.3-21.3V202.7C426.7,190.9,417.1,181.3,405.3,181.3z M405.3,309.3H352V202.7h53.3V309.3z"/>
	</g>
</g>
<g>
	<g>
		<rect x="426.7" y="149.3" class="st0" width="21.3" height="21.3"/>
	</g>
</g>
<g>
	<g>
		<path class="st0" d="M64,352v-21.3H42.7v32c0,5.9,4.8,10.7,10.7,10.7h32V352L64,352L64,352z"/>
	</g>
</g>
</svg>
