<?xml version="1.0" encoding="utf-8"?>
<!-- Generator: Adobe Illustrator 25.4.1, SVG Export Plug-In . SVG Version: 6.00 Build 0)  -->
<svg version="1.1" id="Capa_1" xmlns="http://www.w3.org/2000/svg" xmlns:xlink="http://www.w3.org/1999/xlink" x="0px" y="0px"
	 viewBox="0 0 488.4 539.3" style="enable-background:new 0 0 488.4 539.3;" xml:space="preserve">
<style type="text/css">
	.st0{fill:#FFFFFF;}
	.st1{fill:#CB65C700;}
</style>
<g>
	<g>
		<path class="st0" d="M425.1,459.1L388.5,398c-16.9-28.2-25.9-60.5-25.9-93.3v-53.5c0-67.5-45.1-124.6-106.7-143V69.9
			c0-23.5-19.1-42.7-42.7-42.7s-42.7,19.1-42.7,42.7v38.3C109,126.6,64,183.8,64,251.3v53.5c0,32.9-8.9,65.1-25.8,93.3l-36.7,61
			c-2,3.3-2,7.4-0.1,10.8c1.9,3.3,5.4,5.4,9.3,5.4H416c3.8,0,7.4-2.1,9.3-5.4C427.2,466.5,427.1,462.4,425.1,459.1z"/>
	</g>
</g>
<g>
	<g>
		<path class="st0" d="M146.1,496.6c12,25.1,37.5,42.7,67.2,42.7s55.1-17.5,67.2-42.7L146.1,496.6L146.1,496.6z"/>
	</g>
</g>
<circle class="st1" cx="431.4" cy="57" r="57"/>
</svg>
