<svg xmlns="http://www.w3.org/2000/svg" xmlns:xlink="http://www.w3.org/1999/xlink" width="322.3" height="116.666" viewBox="0 0 322.3 116.666">
  <defs>
    <linearGradient id="linear-gradient" x1="0.5" y1="1" x2="0.5" gradientUnits="objectBoundingBox">
      <stop offset="0" stop-color="#b93741"/>
      <stop offset="1" stop-color="#cf65cb"/>
    </linearGradient>
  </defs>
  <path id="Forme_9_1" data-name="Forme 9 1" d="M167.018,112.851V14.485s-.922-4.193-4.938-4.193a5.813,5.813,0,0,0-5.317,3.812v99.128a4.546,4.546,0,0,1-4.559,3.05,6.239,6.239,0,0,1-5.318-3.431V14.1S146.52,0,161.7,0s15.195,13.725,15.195,13.725v99.129a5.1,5.1,0,0,1-9.877,0ZM187.81,100.92v-84a4.86,4.86,0,0,1,9.72,0v84a4.86,4.86,0,0,1-9.72,0Zm-62.34,0v-84a4.86,4.86,0,0,1,9.72,0v84a4.86,4.86,0,0,1-9.72,0ZM229.5,85.16V32.65a5.06,5.06,0,0,1,10.12,0V85.16a5.06,5.06,0,0,1-10.12,0Zm-146.13,0V32.65a5.06,5.06,0,0,1,10.12,0V85.16a5.06,5.06,0,0,1-10.12,0ZM208.47,77V40.84a5.06,5.06,0,0,1,10.12,0V77a5.06,5.06,0,0,1-10.12,0ZM104.41,77V40.84a5.06,5.06,0,0,1,10.12,0V77a5.06,5.06,0,0,1-10.12,0ZM255.23,74.28a5.07,5.07,0,0,1-5.07-5.07V48.63a5.07,5.07,0,0,1,5.07-5.07h.02a5.07,5.07,0,0,1,5.07,5.07V69.21a5.07,5.07,0,0,1-5.07,5.07Zm-187.47,0a5.07,5.07,0,0,1-5.07-5.07V48.63a5.07,5.07,0,0,1,5.07-5.07h.02a5.07,5.07,0,0,1,5.07,5.07V69.21a5.07,5.07,0,0,1-5.07,5.07Zm203.46-10.7V54.64a4.86,4.86,0,1,1,9.72,0v8.94a4.86,4.86,0,0,1-9.72,0Zm-229.161,0V54.64a4.86,4.86,0,0,1,9.72,0v8.94a4.86,4.86,0,0,1-9.72,0ZM312.53,59.11a5.06,5.06,0,1,1,5.06,5.05A5.055,5.055,0,0,1,312.53,59.11Zm-21.06,0a5.08,5.08,0,1,1,5.08,5.05A5.065,5.065,0,0,1,291.47,59.11Zm-270.1,0a5.08,5.08,0,1,1,5.08,5.05A5.066,5.066,0,0,1,21.37,59.11Zm-21.02,0a5.06,5.06,0,1,1,5.06,5.05A5.055,5.055,0,0,1,.35,59.11Z" transform="translate(-0.35 0.003)" fill="url(#linear-gradient)"/>
</svg>
