<svg xmlns="http://www.w3.org/2000/svg" xmlns:xlink="http://www.w3.org/1999/xlink" width="144" height="52.001" viewBox="0 0 144 52.001">
  <defs>
    <linearGradient id="linear-gradient" x1="0.5" y1="1" x2="0.5" gradientUnits="objectBoundingBox">
      <stop offset="0" stop-color="#b93741"/>
      <stop offset="1" stop-color="#cf65cb"/>
    </linearGradient>
  </defs>
  <path id="logo" d="M3545.465,64.3V20.457a2.374,2.374,0,0,0-2.206-1.87,2.6,2.6,0,0,0-2.376,1.7V64.47a2.031,2.031,0,0,1-2.037,1.359,2.787,2.787,0,0,1-2.376-1.53V20.286A6.136,6.136,0,0,1,3543.089,14c6.782,0,6.789,6.118,6.789,6.118V64.3a2.282,2.282,0,0,1-4.413,0Zm9.285-5.335V21.545a2.175,2.175,0,1,1,4.35,0V58.965a2.175,2.175,0,1,1-4.35,0Zm-27.85,0V21.545a2.175,2.175,0,1,1,4.349,0V58.965a2.175,2.175,0,1,1-4.349,0Zm48.75-4.745a2.26,2.26,0,0,1-2.26-2.26V28.57a2.26,2.26,0,0,1,2.26-2.26h.01a2.26,2.26,0,0,1,2.26,2.26V51.96a2.26,2.26,0,0,1-2.26,2.26Zm-65.3,0a2.26,2.26,0,0,1-2.26-2.26V28.57a2.26,2.26,0,0,1,2.26-2.26h.01a2.26,2.26,0,0,1,2.26,2.26V51.96a2.26,2.26,0,0,1-2.26,2.26Zm53.63-5.9v-16.1a2.265,2.265,0,1,1,4.53,0v16.1a2.265,2.265,0,0,1-4.53,0Zm-46.49,0v-16.1a2.265,2.265,0,1,1,4.53,0v16.1a2.265,2.265,0,0,1-4.53,0Zm65.12-3.48v-9.16a2.265,2.265,0,0,1,4.53,0v9.16a2.265,2.265,0,0,1-4.53,0Zm-83.75,0v-9.16a2.265,2.265,0,0,1,4.53,0v9.16a2.265,2.265,0,0,1-4.53,0Zm93.159-2.51v-3.97a2.175,2.175,0,0,1,4.35,0v3.97a2.175,2.175,0,1,1-4.35,0Zm-102.39,0v-3.97a2.175,2.175,0,0,1,4.35,0v3.97a2.175,2.175,0,1,1-4.35,0ZM3610.48,40.35a2.26,2.26,0,1,1,2.26,2.25A2.255,2.255,0,0,1,3610.48,40.35Zm-9.42,0a2.27,2.27,0,1,1,2.27,2.25A2.26,2.26,0,0,1,3601.06,40.35Zm-120.66,0a2.27,2.27,0,1,1,2.27,2.25A2.26,2.26,0,0,1,3480.4,40.35Zm-9.4,0a2.26,2.26,0,1,1,2.26,2.25A2.255,2.255,0,0,1,3471,40.35Z" transform="translate(-3471 -13.999)" fill="url(#linear-gradient)"/>
</svg>
