<svg xmlns="http://www.w3.org/2000/svg" xmlns:xlink="http://www.w3.org/1999/xlink" width="203.558" height="73.754" viewBox="0 0 203.558 73.754">
  <defs>
    <linearGradient id="linear-gradient" x1="0.5" y1="1" x2="0.5" gradientUnits="objectBoundingBox">
      <stop offset="0" stop-color="#b93741"/>
      <stop offset="1" stop-color="#cf65cb"/>
    </linearGradient>
  </defs>
  <g id="Group_1" data-name="Group 1" transform="translate(-0.221 0.002)">
    <path id="Forme_9_1" data-name="Forme 9 1" d="M105.485,71.343V9.157s-.582-2.651-3.119-2.651a3.673,3.673,0,0,0-3.358,2.41V71.583a2.872,2.872,0,0,1-2.879,1.928,3.941,3.941,0,0,1-3.359-2.169V8.916S92.539,0,102.126,0s9.6,8.677,9.6,8.677V71.343a3.223,3.223,0,0,1-6.238,0ZM118.617,63.8V10.7a3.069,3.069,0,1,1,6.139,0V63.8a3.069,3.069,0,1,1-6.139,0Zm-39.373,0V10.7a3.069,3.069,0,1,1,6.139,0V63.8a3.069,3.069,0,1,1-6.139,0Zm65.7-9.963v-33.2a3.2,3.2,0,1,1,6.391,0v33.2a3.2,3.2,0,1,1-6.391,0Zm-92.293,0v-33.2a3.2,3.2,0,1,1,6.392,0v33.2a3.2,3.2,0,1,1-6.392,0Zm79.011-5.158V25.819a3.2,3.2,0,1,1,6.392,0v22.86a3.2,3.2,0,1,1-6.392,0Zm-65.722,0V25.819a3.2,3.2,0,1,1,6.392,0v22.86a3.2,3.2,0,1,1-6.392,0Zm95.255-1.72a3.2,3.2,0,0,1-3.2-3.2V30.743a3.2,3.2,0,0,1,3.2-3.2h.013a3.2,3.2,0,0,1,3.2,3.2V43.753a3.2,3.2,0,0,1-3.2,3.2Zm-118.4,0a3.2,3.2,0,0,1-3.2-3.2V30.743a3.2,3.2,0,0,1,3.2-3.2h.013a3.2,3.2,0,0,1,3.2,3.2V43.753a3.2,3.2,0,0,1-3.2,3.2Zm128.5-6.764V34.542a3.069,3.069,0,1,1,6.139,0v5.652a3.069,3.069,0,1,1-6.139,0Zm-144.733,0V34.542a3.069,3.069,0,1,1,6.139,0v5.652a3.069,3.069,0,1,1-6.139,0Zm170.824-2.825a3.2,3.2,0,1,1,3.2,3.192A3.194,3.194,0,0,1,197.388,37.369Zm-13.3,0a3.208,3.208,0,1,1,3.208,3.192A3.2,3.2,0,0,1,184.087,37.369Zm-170.59,0a3.208,3.208,0,1,1,3.209,3.192A3.2,3.2,0,0,1,13.5,37.369Zm-13.275,0a3.2,3.2,0,1,1,3.2,3.192A3.194,3.194,0,0,1,.221,37.369Z" fill="url(#linear-gradient)"/>
  </g>
</svg>
