<?xml version="1.0" encoding="utf-8"?>
<!-- Generator: Adobe Illustrator 25.4.1, SVG Export Plug-In . SVG Version: 6.00 Build 0)  -->
<svg version="1.1" id="Layer_1" xmlns="http://www.w3.org/2000/svg" xmlns:xlink="http://www.w3.org/1999/xlink" x="0px" y="0px"
	 viewBox="0 0 400.2 458.2" style="enable-background:new 0 0 400.2 458.2;" xml:space="preserve">
<g>
	<path d="M214,3.2c26.1,10,48.9,23.8,61.5,50.4c12.1,25.6,10.5,36.5-9.2,56.2c-45.9,45.9-91.7,91.8-137.6,137.6
		c-4.1,4.1-8.5,8.1-16,15.2c-2.1-16-3.5-25.6-4.6-39c-2.7-36.2,1.3-72.7-0.6-108.9C104.7,60,125,21.5,178.3,3.2
		C196.3-1.1,197.4-1,214,3.2z"/>
	<path d="M28.2,430.1c-22.2-0.7-33.7-19-25.6-34.6c3.2-6.1,8.5-11.4,13.5-16.4C127.2,267.9,238.3,156.8,349.5,45.7
		c3.8-3.8,7.5-7.8,11.9-10.8c11.5-7.9,22.8-6.6,32.1,3.5c8.8,9.6,8.8,20.3,1.2,30.9c-1.7,2.4-3.7,4.6-5.8,6.7
		c-114,114.1-228,228.3-342.3,342.1C40.5,424.2,32.1,427.6,28.2,430.1z"/>
	<path d="M181.5,422.9v-33.7c-13.8-4.7-27.5-9.4-41.3-14.1c-13.3-4.5-15.3-23-2.8-29.6c6.2-3.3,13.5-1.9,26.9,2
		c76.6,22.1,151.8-30.2,157.7-110c1.1-14.8-0.4-30,2.4-44.4c1.2-6.2,11.1-15.7,15.7-14.9c6.6,1.1,16.4,9.7,16.9,15.8
		c5.4,59.4-4.5,115.1-54.3,154.3c-19.4,15.3-37,25.3-67.1,34.7c-5.4,1.7-11.3,2.9-17.3,4.3v35.5c17.1,0,34.1,0,51.1,0
		c5.9,0,11.9-0.4,17.8,0.3c10.8,1.2,19.6,7.5,16.8,18.4c-1.7,6.6-11.1,15.8-17.1,15.9c-57.7,1.2-115.4,0.9-173.1,0.6
		c-11,0-20.2-6.4-17.6-17.3c1.6-7,11.1-16.3,17.9-17C135.6,421.5,157.7,422.9,181.5,422.9z"/>
	<path d="M173.7,313.3c38.2-38.3,75.3-75.6,113.3-113.6c3.2,34,1.1,66.5-25.8,92.4C236.4,315.9,207.3,321.9,173.7,313.3z"/>
	<path d="M74.6,303.2c-5.2,4.2-12.9,2.8-16-3.1C40,265.1,40.7,228.6,43.2,192.2c0.4-5.4,3.9-14.1,16.6-14.1c12,0,13.1,7.4,15.5,13.4
		c2.9,7.3,1,16.4,1.8,24.6c1.8,17.6,0.7,36.5,6.9,52.5C90.2,284.8,86.4,293.8,74.6,303.2C74.6,303.1,74.6,303.1,74.6,303.2z"/>
</g>
</svg>
