<svg id="Capa_1" data-name="Capa 1" xmlns="http://www.w3.org/2000/svg" viewBox="0 0 467.97 274.94"><defs><style>.cls-1{fill:#FFFFFF;}</style></defs><path class="cls-1" d="M264.7,96.51H51.2A51.35,51.35,0,0,0,0,147.71V320.26a51.35,51.35,0,0,0,51.2,51.2H264.7a51.35,51.35,0,0,0,51.2-51.2V147.71A51,51,0,0,0,264.7,96.51Z" transform="translate(0 -96.51)"/><path class="cls-1" d="M430.08,124.67a26,26,0,0,0-8.7,3.59L341.5,174.34V293.12l80.39,46.08c14.85,8.7,33.28,3.58,42-11.26a31.29,31.29,0,0,0,4.1-15.36V154.37A30.81,30.81,0,0,0,430.08,124.67Z" transform="translate(0 -96.51)"/></svg>